<?xml version="1.0" encoding="UTF-8" standalone="no"?><!DOCTYPE svg PUBLIC "-//W3C//DTD SVG 1.1//EN" "http://www.w3.org/Graphics/SVG/1.1/DTD/svg11.dtd"><svg width="100%" height="100%" viewBox="0 0 4167 4167" version="1.1" xmlns="http://www.w3.org/2000/svg" xmlns:xlink="http://www.w3.org/1999/xlink" xml:space="preserve" xmlns:serif="http://www.serif.com/" style="fill-rule:evenodd;clip-rule:evenodd;stroke-linejoin:round;stroke-miterlimit:2;"><g><g><g><path d="M588.851,1705.207c-37.5,0 -79.178,34.375 -91.31,67.708l-221.794,609.375c-13.649,37.5 3.481,67.708 42.023,67.708l279.167,0c10.417,0 16.479,-5.208 18.754,-11.458l233.168,-640.625c3.033,-8.333 7.295,-11.458 14.587,-11.458l92.708,0c5.208,0 8.996,1.042 12.404,3.125l310.873,619.792c16.372,32.292 47.714,40.625 103.964,40.625l252.083,0c9.375,0 15.437,-5.208 17.712,-11.458l261.983,-719.792c3.033,-8.333 0.762,-13.542 -8.613,-13.542l-280.208,0c-33.333,0 -78.136,34.375 -90.269,67.708l-171.369,470.833c-3.791,10.417 -13.737,17.708 -24.154,17.708c-3.125,0 -7.575,-2.083 -7.763,-7.292l-255.507,-522.917c-7.192,-14.583 -28.022,-26.042 -58.23,-26.042l-430.208,0Z" style="stroke:#000;stroke-width:329.41px;"/><path d="M2115.935,1705.207c-44.792,0 -75.387,23.958 -91.31,67.708l-221.794,609.375c-16.682,45.833 -2.769,67.708 42.023,67.708l281.25,0c8.333,0 14.396,-5.208 16.67,-11.458l261.983,-719.792c3.033,-8.333 0.762,-13.542 -7.571,-13.542l-281.25,0Z" style="stroke:#000;stroke-width:329.41px;"/><path d="M2604.476,1705.207c-40.625,0 -76.903,28.125 -91.31,67.708l-221.794,609.375c-14.028,38.542 1.398,67.708 42.023,67.708l281.25,0c8.333,0 14.396,-5.208 16.67,-11.458l93.267,-256.25c2.654,-7.292 7.295,-11.458 14.587,-11.458l488.542,0c8.333,0 12.404,3.125 15.054,7.292l170.933,268.75c4.542,10.417 15.525,14.583 29.067,14.583c29.167,0 61.845,-23.958 71.703,-51.042c4.55,-12.5 4.933,-25 -0.555,-38.542l-220.719,-343.75c0.096,-3.125 -0.85,-6.25 -0.092,-8.333c1.517,-4.167 5.116,-8.333 7.675,-12.5l300.452,-218.75c14.587,-11.458 22.166,-20.833 27.853,-36.458c10.995,-30.208 3.519,-46.875 -30.856,-46.875l-232.292,0c-43.75,0 -68.375,10.417 -104.936,36.458l-352.359,258.333c-7.104,5.208 -10.608,6.25 -17.9,6.25l-91.667,0c-7.292,0 -8.521,-5.208 -5.867,-12.5l80.377,-220.833c14.407,-39.583 2.769,-67.708 -43.065,-67.708l-226.042,0Z" style="stroke:#000;stroke-width:329.41px;"/><path d="M3685.93,2231.249c-29.546,1.042 -48.016,14.583 -57.874,41.667l-49.288,135.417c-11.374,31.25 -1.624,41.667 27.543,41.667l178.125,0c29.167,0 47.637,-13.542 57.874,-41.667l49.288,-135.417c9.858,-27.083 1.624,-41.667 -27.543,-41.667l-178.125,0Z" style="stroke:#000;stroke-width:329.41px;"/></g></g><g><g><path d="M588.851,1705.207c-37.5,0 -79.178,34.375 -91.31,67.708l-221.794,609.375c-13.649,37.5 3.481,67.708 42.023,67.708l279.167,0c10.417,0 16.479,-5.208 18.754,-11.458l233.168,-640.625c3.033,-8.333 7.295,-11.458 14.587,-11.458l92.708,0c5.208,0 8.996,1.042 12.404,3.125l310.873,619.792c16.372,32.292 47.714,40.625 103.964,40.625l252.083,0c9.375,0 15.437,-5.208 17.712,-11.458l261.983,-719.792c3.033,-8.333 0.762,-13.542 -8.613,-13.542l-280.208,0c-33.333,0 -78.136,34.375 -90.269,67.708l-171.369,470.833c-3.791,10.417 -13.737,17.708 -24.154,17.708c-3.125,0 -7.575,-2.083 -7.763,-7.292l-255.507,-522.917c-7.192,-14.583 -28.022,-26.042 -58.23,-26.042l-430.208,0Z" style="fill:#fff;"/><path d="M2115.935,1705.207c-44.792,0 -75.387,23.958 -91.31,67.708l-221.794,609.375c-16.682,45.833 -2.769,67.708 42.023,67.708l281.25,0c8.333,0 14.396,-5.208 16.67,-11.458l261.983,-719.792c3.033,-8.333 0.762,-13.542 -7.571,-13.542l-281.25,0Z" style="fill:#fff;"/><path d="M2604.476,1705.207c-40.625,0 -76.903,28.125 -91.31,67.708l-221.794,609.375c-14.028,38.542 1.398,67.708 42.023,67.708l281.25,0c8.333,0 14.396,-5.208 16.67,-11.458l93.267,-256.25c2.654,-7.292 7.295,-11.458 14.587,-11.458l488.542,0c8.333,0 12.404,3.125 15.054,7.292l170.933,268.75c4.542,10.417 15.525,14.583 29.067,14.583c29.167,0 61.845,-23.958 71.703,-51.042c4.55,-12.5 4.933,-25 -0.555,-38.542l-220.719,-343.75c0.096,-3.125 -0.85,-6.25 -0.092,-8.333c1.517,-4.167 5.116,-8.333 7.675,-12.5l300.452,-218.75c14.587,-11.458 22.166,-20.833 27.853,-36.458c10.995,-30.208 3.519,-46.875 -30.856,-46.875l-232.292,0c-43.75,0 -68.375,10.417 -104.936,36.458l-352.359,258.333c-7.104,5.208 -10.608,6.25 -17.9,6.25l-91.667,0c-7.292,0 -8.521,-5.208 -5.867,-12.5l80.377,-220.833c14.407,-39.583 2.769,-67.708 -43.065,-67.708l-226.042,0Z" style="fill:#fff;"/><path d="M3685.93,2231.249c-29.546,1.042 -48.016,14.583 -57.874,41.667l-49.288,135.417c-11.374,31.25 -1.624,41.667 27.543,41.667l178.125,0c29.167,0 47.637,-13.542 57.874,-41.667l49.288,-135.417c9.858,-27.083 1.624,-41.667 -27.543,-41.667l-178.125,0Z" style="fill:#fff;"/></g></g></g></svg>