<?xml version="1.0" encoding="UTF-8" standalone="no"?>
<!DOCTYPE svg PUBLIC "-//W3C//DTD SVG 1.1//EN" "http://www.w3.org/Graphics/SVG/1.1/DTD/svg11.dtd">
<svg width="1000px" height="1000px" version="1.1" xmlns="http://www.w3.org/2000/svg" xmlns:xlink="http://www.w3.org/1999/xlink" xml:space="preserve" xmlns:serif="http://www.serif.com/" style="fill-rule:evenodd;clip-rule:evenodd;stroke-linejoin:round;stroke-miterlimit:2;">
    <g>
        <g>
            <g transform="matrix(1,0,-0.36397,1,214.014257,0)">
                <text x="44.765px" y="588px" style="font-family:'Superglue-Regular', 'Superglue', fantasy;font-size:250px;stroke:black;stroke-width:94.34px;">NIK.</text>
            </g>
        </g>
        <g>
            <g>
                <path d="M141.324,409.25C132.324,409.25 122.322,417.5 119.41,425.5L66.179,571.75C62.903,580.75 67.015,588 76.265,588L143.265,588C145.765,588 147.22,586.75 147.766,585.25L203.726,431.5C204.454,429.5 205.477,428.75 207.227,428.75L229.477,428.75C230.727,428.75 231.636,429 232.454,429.5L307.063,578.25C310.993,586 318.515,588 332.015,588L392.515,588C394.765,588 396.22,586.75 396.766,585.25L459.641,412.5C460.369,410.5 459.824,409.25 457.574,409.25L390.324,409.25C382.324,409.25 371.572,417.5 368.66,425.5L327.531,538.5C326.621,541 324.234,542.75 321.734,542.75C320.984,542.75 319.916,542.25 319.871,541L258.55,415.5C256.823,412 251.824,409.25 244.574,409.25L141.324,409.25Z" style="fill:white;"/>
                <path d="M507.824,409.25C497.074,409.25 489.732,415 485.91,425.5L432.679,571.75C428.676,582.75 432.015,588 442.765,588L510.265,588C512.265,588 513.72,586.75 514.266,585.25L577.141,412.5C577.869,410.5 577.324,409.25 575.324,409.25L507.824,409.25Z" style="fill:white;"/>
                <path d="M625.074,409.25C615.324,409.25 606.618,416 603.16,425.5L549.929,571.75C546.563,581 550.265,588 560.015,588L627.515,588C629.515,588 630.97,586.75 631.516,585.25L653.9,523.75C654.537,522 655.651,521 657.401,521L774.651,521C776.651,521 777.628,521.75 778.264,522.75L819.288,587.25C820.378,589.75 823.014,590.75 826.264,590.75C833.264,590.75 841.107,585 843.472,578.5C844.564,575.5 844.656,572.5 843.339,569.25L790.367,486.75C790.39,486 790.163,485.25 790.345,484.75C790.709,483.75 791.573,482.75 792.187,481.75L864.295,429.25C867.796,426.5 869.615,424.25 870.98,420.5C873.618,413.25 871.824,409.25 863.574,409.25L807.824,409.25C797.324,409.25 791.414,411.75 782.64,418L698.073,480C696.369,481.25 695.528,481.5 693.778,481.5L671.778,481.5C670.028,481.5 669.732,480.25 670.369,478.5L689.66,425.5C693.118,416 690.324,409.25 679.324,409.25L625.074,409.25Z" style="fill:white;"/>
                <path d="M884.623,535.5C877.532,535.75 873.099,539 870.733,545.5L858.904,578C856.175,585.5 858.515,588 865.515,588L908.265,588C915.265,588 919.698,584.75 922.154,578L933.983,545.5C936.349,539 934.373,535.5 927.373,535.5L884.623,535.5Z" style="fill:white;"/>
            </g>
        </g>
    </g>
</svg>
