<?xml version="1.0" encoding="UTF-8" standalone="no"?>
<!DOCTYPE svg PUBLIC "-//W3C//DTD SVG 1.1//EN" "http://www.w3.org/Graphics/SVG/1.1/DTD/svg11.dtd">
<svg width="100%" height="100%" viewBox="0 0 1000 1000" version="1.1" xmlns="http://www.w3.org/2000/svg" xmlns:xlink="http://www.w3.org/1999/xlink" xml:space="preserve" xmlns:serif="http://www.serif.com/" style="fill-rule:evenodd;clip-rule:evenodd;stroke-linejoin:round;stroke-miterlimit:2;">
    <g transform="matrix(1,0,0,1,30.349046,-5.866667)">
        <g transform="matrix(1,0,-0.36397,1,57.07215,265.453383)">
            <g transform="matrix(1,0,0,1,76.876,328.413)">
                <text x="0px" y="0px" style="font-family:'Superglue-Regular', 'Superglue', fantasy;font-size:250px;stroke:black;stroke-width:94.34px;">NIK.</text>
            </g>
        </g>
        <g transform="matrix(1,0,-0.36397,1,57.07215,265.453383)">
            <g transform="matrix(1,0,0,1,76.876,328.413)">
                <path d="M31.5,-178.75C22.5,-178.75 15.5,-170.5 15.5,-162.5L15.5,-16.25C15.5,-7.25 22.25,0 31.5,0L98.5,0C101,0 102,-1.25 102,-2.75L102,-156.5C102,-158.5 102.75,-159.25 104.5,-159.25L126.75,-159.25C128,-159.25 129,-159 130,-158.5L258.75,-9.75C265.5,-2 273.75,0 287.25,0L347.75,0C350,0 351,-1.25 351,-2.75L351,-175.5C351,-177.5 350,-178.75 347.75,-178.75L280.5,-178.75C272.5,-178.75 264.75,-170.5 264.75,-162.5L264.75,-49.5C264.75,-47 263,-45.25 260.5,-45.25C259.75,-45.25 258.5,-45.75 258,-47L151,-172.5C148,-176 142,-178.75 134.75,-178.75L31.5,-178.75Z" style="fill:white;"/>
                <path d="M398,-178.75C387.25,-178.75 382,-173 382,-162.5L382,-16.25C382,-5.25 387.25,0 398,0L465.5,0C467.5,0 468.5,-1.25 468.5,-2.75L468.5,-175.5C468.5,-177.5 467.5,-178.75 465.5,-178.75L398,-178.75Z" style="fill:white;"/>
                <path d="M515.25,-178.75C505.5,-178.75 499.25,-172 499.25,-162.5L499.25,-16.25C499.25,-7 505.5,0 515.25,0L582.75,0C584.75,0 585.75,-1.25 585.75,-2.75L585.75,-64.25C585.75,-66 586.5,-67 588.25,-67L705.5,-67C707.5,-67 708.75,-66.25 709.75,-65.25L774.25,-0.75C776.25,1.75 779.25,2.75 782.5,2.75C789.5,2.75 795.25,-3 795.25,-9.5C795.25,-12.5 794.25,-15.5 791.75,-18.75L708.75,-101.25C708.5,-102 708,-102.75 708,-103.25C708,-104.25 708.5,-105.25 708.75,-106.25L761.75,-158.75C764.25,-161.5 765.25,-163.75 765.25,-167.5C765.25,-174.75 762,-178.75 753.75,-178.75L698,-178.75C687.5,-178.75 682.5,-176.25 676,-170L614,-108C612.75,-106.75 612,-106.5 610.25,-106.5L588.25,-106.5C586.5,-106.5 585.75,-107.75 585.75,-109.5L585.75,-162.5C585.75,-172 580.5,-178.75 569.5,-178.75L515.25,-178.75Z" style="fill:white;"/>
                <path d="M820.75,-52.5C813.75,-52.25 810.5,-49 810.5,-42.5L810.5,-10C810.5,-2.5 813.75,0 820.75,0L863.5,0C870.5,0 873.75,-3.25 873.75,-10L873.75,-42.5C873.75,-49 870.5,-52.5 863.5,-52.5L820.75,-52.5Z" style="fill:white;"/>
            </g>
        </g>
    </g>
</svg>
